<?xml version="1.0" encoding="utf-8"?>
<!-- Generator: Adobe Illustrator 16.0.0, SVG Export Plug-In . SVG Version: 6.00 Build 0)  -->
<!DOCTYPE svg PUBLIC "-//W3C//DTD SVG 1.1//EN" "http://www.w3.org/Graphics/SVG/1.1/DTD/svg11.dtd">
<svg version="1.1" id="Layer_1" xmlns="http://www.w3.org/2000/svg" xmlns:xlink="http://www.w3.org/1999/xlink" x="0px" y="0px"
	 width="208.672px" height="211.378px" viewBox="0 0 208.672 211.378" enable-background="new 0 0 208.672 211.378"
	 xml:space="preserve">
<path fill="#FFFFFF" d="M104.337,211.378C46.714,211.378,0,164.06,0,105.689C0,47.319,46.714,0,104.337,0
	s104.335,47.319,104.335,105.689C208.672,164.06,161.959,211.378,104.337,211.378z M104.337,6.605
	c-54.021,0-97.816,44.363-97.816,99.085c0,54.722,43.795,99.083,97.816,99.083c54.021,0,97.815-44.361,97.815-99.083
	C202.152,50.969,158.357,6.605,104.337,6.605z"/>
<path fill="#FFFFFF" d="M123.898,155.23H78.253c-7.204,0-13.042-5.915-13.042-13.211v-49.54v-3.303V75.964h13.042h45.646h13.043
	v13.212v3.303v49.541C136.941,149.316,131.104,155.23,123.898,155.23z M130.42,102.387v-9.908V82.57H71.732v9.909v9.908v39.633
	c0,3.647,2.919,6.604,6.521,6.604h45.646c3.603,0,6.521-2.957,6.521-6.604V102.387z"/>
<path fill="#FFFFFF" d="M81.513,59.45c1.801,0,3.26,1.479,3.26,3.303v6.605c0,1.824-1.459,3.303-3.26,3.303
	c-1.801,0-3.26-1.479-3.26-3.303v-6.605C78.253,60.93,79.713,59.45,81.513,59.45z"/>
<path fill="#FFFFFF" d="M94.555,46.239c1.801,0,3.261,1.479,3.261,3.303v19.816c0,1.824-1.46,3.303-3.261,3.303
	c-1.801,0-3.26-1.479-3.26-3.303V49.542C91.295,47.719,92.754,46.239,94.555,46.239z"/>
<path fill="#FFFFFF" d="M107.598,52.845c1.801,0,3.26,1.479,3.26,3.303v13.211c0,1.824-1.459,3.303-3.26,3.303
	c-1.802,0-3.261-1.479-3.261-3.303V56.147C104.337,54.324,105.796,52.845,107.598,52.845z"/>
<path fill="#FFFFFF" d="M120.641,59.45c1.801,0,3.26,1.479,3.26,3.303v6.605c0,1.824-1.459,3.303-3.26,3.303
	c-1.802,0-3.262-1.479-3.262-3.303v-6.605C117.378,60.93,118.839,59.45,120.641,59.45z"/>
<path fill="#FFFFFF" d="M136.941,135.082v-6.606c7.441-1.529,13.043-8.19,13.043-16.181c0-7.988-5.602-14.65-13.043-16.179V89.51
	c11.047,1.614,19.563,11.149,19.563,22.787C156.505,123.933,147.988,133.464,136.941,135.082z"/>
</svg>
