<?xml version="1.0" encoding="utf-8"?>
<!-- Generator: Adobe Illustrator 16.0.0, SVG Export Plug-In . SVG Version: 6.00 Build 0)  -->
<!DOCTYPE svg PUBLIC "-//W3C//DTD SVG 1.1//EN" "http://www.w3.org/Graphics/SVG/1.1/DTD/svg11.dtd">
<svg version="1.1" id="Layer_1" xmlns="http://www.w3.org/2000/svg" xmlns:xlink="http://www.w3.org/1999/xlink" x="0px" y="0px"
	 width="640px" height="480px" viewBox="0 0 640 480" enable-background="new 0 0 640 480" xml:space="preserve">
<g>
	<path fill="#FFFFFF" d="M548.192,153.792L328.688,7.44c-5.279-3.504-12.144-3.504-17.375,0L91.76,153.792
		c-4.368,2.88-6.96,7.824-6.96,13.056V313.2c0,5.231,2.64,10.128,6.96,13.056l219.504,146.353c2.64,1.775,5.664,2.64,8.688,2.64
		s6.048-0.864,8.688-2.64l219.503-146.353c4.368-2.88,6.96-7.824,6.96-13.056V166.848C555.2,161.616,552.56,156.672,548.192,153.792
		L548.192,153.792z M320,294.336L238.496,240L320,185.664L401.456,240L320,294.336z M335.648,158.448V49.776l175.584,117.072
		l-81.505,54.336L335.648,158.448L335.648,158.448z M304.304,158.448l-94.08,62.736l-81.504-54.336L304.304,49.776V158.448z
		 M181.952,240l-65.808,43.872v-87.744L181.952,240z M210.224,258.863l94.08,62.736v108.673L128.72,313.2L210.224,258.863z
		 M335.648,321.552l94.079-62.735l81.505,54.336L335.648,430.224V321.552z M458,240l65.808-43.872v87.744L458,240z"/>
</g>
</svg>
