<?xml version="1.0" encoding="utf-8"?>
<!-- Generator: Adobe Illustrator 16.0.0, SVG Export Plug-In . SVG Version: 6.00 Build 0)  -->
<!DOCTYPE svg PUBLIC "-//W3C//DTD SVG 1.1//EN" "http://www.w3.org/Graphics/SVG/1.1/DTD/svg11.dtd">
<svg version="1.1" id="Layer_1" xmlns="http://www.w3.org/2000/svg" xmlns:xlink="http://www.w3.org/1999/xlink" x="0px" y="0px"
	 width="202.084px" height="207.333px" viewBox="741 2493 202.084 207.333" enable-background="new 741 2493 202.084 207.333"
	 xml:space="preserve">
<path fill="#FFFFFF" d="M842.042,2493C786.246,2493,741,2539.428,741,2596.667c0,57.238,45.246,103.666,101.042,103.666
	s101.042-46.428,101.042-103.666C943.084,2539.428,897.838,2493,842.042,2493z M842.042,2693.852
	c-52.306,0-94.717-43.514-94.717-97.185s42.411-97.186,94.717-97.186c52.305,0,94.717,43.515,94.717,97.186
	S894.347,2693.852,842.042,2693.852z"/>
<path fill="#FFFFFF" d="M877.708,2554.649l-54.771,44.982c0,0,0,0.131-5.591,5.644c-13.699,5.8-12.755,15.483-13.043,17.505
	c-0.919,1.628-3.176,16.167-3.176,16.167s4.173-0.761,16.219-3.229c12.23-0.736,16.482-13.202,16.482-13.202l5.59-6.192
	l43.593-56.006L877.708,2554.649z M817.871,2631.125c-10.157,2.074-12.755,2.704-12.755,2.704s2.388-9.686,3.176-11.049
	c0.263-1.707-0.421-9.134,11.705-14.804l11.442,11.049C831.439,2619.025,827.502,2629.498,817.871,2631.125z M835.166,2613.359
	l-9.579-8.898l50.258-42.805l0.264,0.287L835.166,2613.359z"/>
</svg>
