<?xml version="1.0" encoding="utf-8"?>
<!-- Generator: Adobe Illustrator 16.0.0, SVG Export Plug-In . SVG Version: 6.00 Build 0)  -->
<!DOCTYPE svg PUBLIC "-//W3C//DTD SVG 1.1//EN" "http://www.w3.org/Graphics/SVG/1.1/DTD/svg11.dtd">
<svg version="1.1" id="Layer_1" xmlns="http://www.w3.org/2000/svg" xmlns:xlink="http://www.w3.org/1999/xlink" x="0px" y="0px"
	 width="1120px" height="218px" viewBox="0 0 1120 218" enable-background="new 0 0 1120 218" xml:space="preserve">
<path d="M89.101,197.142h8.947l-56.772-53.988l56.954-64.488h-9.882l-52.693,60.293H7.558L7.462,3.126H0.518v194.015h6.945
	l0.095-49.785h28.097L89.101,197.142z"/>
<path d="M231.529,197.142c7.563-0.18,14.621-1.422,21.167-3.73c6.54-2.309,12.485-5.445,17.826-9.391
	c5.341-3.957,10.084-8.617,14.223-13.996c4.139-5.375,7.632-11.164,10.482-17.391c2.851-6.219,5.032-12.789,6.543-19.722
	c1.515-6.926,2.318-13.902,2.407-20.918V88.279c-0.089-7.02-0.893-13.996-2.407-20.922c-1.511-6.934-3.692-13.508-6.543-19.723
	c-2.851-6.219-6.344-12.016-10.482-17.395c-4.139-5.371-8.882-10.031-14.223-13.984c-5.341-3.957-11.286-7.086-17.826-9.402
	c-6.546-2.297-13.604-3.547-21.167-3.727h-48.875v194.015H231.529z M231.529,10.322c10.325,0.27,19.516,2.668,27.574,7.195
	s14.868,10.445,20.436,17.727c5.564,7.285,9.816,15.496,12.753,24.652c2.937,9.152,4.493,18.477,4.674,27.98v24.117
	c-0.089,6.395-0.8,12.719-2.136,18.992c-1.336,6.258-3.273,12.258-5.812,17.988c-2.538,5.73-5.674,11.058-9.411,15.992
	c-3.743,4.926-8.016,9.211-12.822,12.859c-4.808,3.641-10.149,6.52-16.029,8.656c-5.874,2.133-12.283,3.293-19.228,3.465h-41.934
	V10.322H231.529z"/>
<path d="M479.363,137.708c-1.244,7.551-3.25,14.687-6.01,21.383c-2.759,6.711-6.386,12.555-10.882,17.531s-9.902,8.91-16.225,11.789
	c-6.323,2.898-13.669,4.289-22.037,4.203c-6.766,0-12.818-1.152-18.162-3.465c-5.338-2.309-10.081-5.414-14.223-9.324
	c-4.139-3.91-7.677-8.445-10.614-13.598c-2.939-5.148-5.367-10.594-7.277-16.324c-1.919-5.727-3.321-11.613-4.208-17.652
	c-0.893-6.047-1.38-11.906-1.47-17.59v-29.32c0.089-5.59,0.577-11.41,1.47-17.453c0.887-6.043,2.289-11.934,4.208-17.652
	c1.91-5.738,4.358-11.172,7.343-16.324c2.981-5.152,6.522-9.668,10.614-13.531c4.097-3.863,8.837-6.922,14.226-9.195
	c5.386-2.262,11.417-3.434,18.094-3.527c8.281-0.086,15.559,1.313,21.837,4.199c6.275,2.887,11.685,6.816,16.226,11.789
	c4.541,4.98,8.212,10.797,11.016,17.453c2.803,6.672,4.832,13.727,6.076,21.188h7.079c-0.982-8.523-3.05-16.563-6.21-24.113
	s-7.367-14.129-12.622-19.727c-5.251-5.59-11.53-10.012-18.826-13.254c-7.302-3.238-15.494-4.82-24.575-4.73
	c-7.478,0.09-14.199,1.355-20.162,3.797c-5.969,2.438-11.265,5.754-15.892,9.926c-4.633,4.176-8.635,9.059-12.018,14.656
	c-3.386,5.602-6.192,11.527-8.415,17.793c-2.226,6.266-3.874,12.75-4.942,19.453c-1.068,6.707-1.648,13.215-1.735,19.52v29.055
	c0.086,6.391,0.667,12.906,1.735,19.52c1.068,6.621,2.717,13.086,4.942,19.386c2.223,6.309,5.008,12.258,8.346,17.855
	c3.336,5.598,7.347,10.484,12.019,14.656c4.674,4.176,9.991,7.508,15.96,9.996c5.963,2.488,12.685,3.73,20.162,3.73
	c9.171,0.09,17.383-1.512,24.643-4.797c7.254-3.281,13.506-7.746,18.757-13.395c5.255-5.637,9.462-12.234,12.622-19.781
	c3.16-7.543,5.228-15.59,6.21-24.125H479.363z"/>
<path d="M599.754,3.126h-7.347v194.015h110.174v-7.195H599.754V3.126z"/>
<path d="M542.687,161.071v7.469l194.403-63.597v-8.273L542.687,33.068v7.461l49.887,16.531v87.684L542.687,161.071z
	 M727.209,100.806l-126.241,41.742l0.018-83.379L727.209,100.806z"/>
<path d="M908.234,169.622c-3.074,5.293-7.103,9.625-12.089,13c-4.984,3.371-10.661,5.883-17.026,7.527
	c-6.367,1.641-12.8,2.465-19.296,2.465c-7.659,0-14.848-1-21.566-3.008c-6.725-1.992-12.688-4.992-17.897-8.984
	c-5.207-4-9.48-8.953-12.818-14.859c-3.338-5.91-5.409-12.813-6.21-20.722h-7.079c0.354,8.972,2.404,16.851,6.145,23.656
	c3.737,6.797,8.59,12.504,14.553,17.113c5.966,4.625,12.821,8.113,20.569,10.461c7.745,2.359,15.845,3.535,24.304,3.535
	c7.567,0,14.958-1.023,22.167-3.059c7.209-2.047,13.643-5.117,19.299-9.199c5.65-4.09,10.212-9.219,13.688-15.391
	c3.469-6.168,5.207-13.438,5.207-21.789c0-8.433-1.803-15.722-5.406-21.855c-3.606-6.121-8.281-11.336-14.024-15.656
	c-5.743-4.309-12.152-7.926-19.23-10.855c-7.076-2.934-14.086-5.418-21.031-7.465c-3.921-1.148-7.95-2.438-12.089-3.859
	c-4.139-1.426-8.212-3.047-12.217-4.867c-4.008-1.82-7.769-3.926-11.286-6.324s-6.608-5.137-9.28-8.195
	c-2.669-3.07-4.788-6.551-6.344-10.461s-2.294-8.309-2.202-13.195c0.086-6.844,1.688-12.77,4.806-17.793
	c3.118-5.012,7.165-9.164,12.155-12.453c4.984-3.285,10.548-5.734,16.692-7.332c6.142-1.598,12.241-2.398,18.296-2.398
	c7.209,0,13.842,1.152,19.9,3.461c6.052,2.309,11.346,5.555,15.889,9.727c4.541,4.184,8.209,9.18,11.015,14.996
	c2.806,5.82,4.562,12.234,5.276,19.25h7.079c-0.357-8.258-2.116-15.762-5.275-22.52c-3.16-6.742-7.368-12.477-12.619-17.184
	c-5.255-4.707-11.42-8.375-18.499-11c-7.076-2.617-14.667-3.926-22.766-3.926c-7.124,0-14.181,1-21.167,3
	c-6.99,2-13.289,4.973-18.897,8.918c-5.609,3.957-10.173,8.914-13.687,14.859c-3.52,5.957-5.276,12.844-5.276,20.664
	c-0.089,5.512,0.688,10.461,2.336,14.852c1.646,4.398,3.895,8.352,6.742,11.863c2.851,3.508,6.186,6.617,10.016,9.324
	c3.83,2.715,7.927,5.129,12.289,7.266c4.362,2.129,8.858,4.035,13.488,5.723c4.627,1.691,9.17,3.203,13.622,4.535
	c6.145,1.863,12.44,4.07,18.897,6.594c6.451,2.535,12.307,5.672,17.558,9.398c5.255,3.73,9.569,8.285,12.958,13.664
	c3.38,5.367,5.025,11.879,4.939,19.519C912.84,158.009,911.302,164.345,908.234,169.622z"/>
<path d="M984.261,0.329v196.812h7.212v-81.75L991.34,12.786l45.239,134.57h9.132l49.173-134.289l-0.179,102.324v81.75h7.21V0.329
	h-11.218l-49.2,138.629L994.815,0.329H984.261z"/>
</svg>
